<svg width="105" height="40" viewBox="0 0 105 40" fill="none" xmlns="http://www.w3.org/2000/svg">
<path d="M64.0264 12.498C65.8937 12.5686 67.5146 13.2569 68.8887 14.5801C70.2628 15.9034 71.0027 17.5096 71.1084 19.3799C71.2492 21.4969 70.5802 23.3322 69.1533 24.9023C67.6912 26.4372 65.9117 27.2128 63.7979 27.2129C62.7937 27.2129 61.8418 27.019 60.9434 26.6309C60.3974 26.4015 59.8866 26.1017 59.4287 25.7666C59.0941 25.5197 58.6009 25.7663 58.6006 26.1895V31.0947C58.6006 32.4355 57.5262 33.5115 56.1875 33.5117V12.498L56.3633 12.6572C56.9445 13.1687 57.6138 13.4859 58.3711 13.5918C59.1285 13.6976 59.8687 13.5744 60.5557 13.2393C61.6655 12.6923 62.8285 12.4451 64.0264 12.498ZM81.7139 12.498C83.5809 12.5687 85.2013 13.2571 86.5752 14.5801C87.9493 15.9034 88.6892 17.5096 88.7949 19.3799C88.9357 21.497 88.2667 23.3322 86.8398 24.9023C85.3777 26.4372 83.5983 27.2129 81.4844 27.2129C80.4803 27.2129 79.5292 27.0189 78.6309 26.6309C78.0847 26.4015 77.5733 26.1018 77.1152 25.7666C76.7806 25.5198 76.2875 25.7663 76.2871 26.1895V31.0947C76.2871 32.4356 75.2129 33.5117 73.874 33.5117V12.498L74.0498 12.6572C74.6312 13.1689 75.3011 13.4859 76.0586 13.5918C76.8161 13.6976 77.5561 13.5745 78.2432 13.2393C79.353 12.6924 80.516 12.4451 81.7139 12.498ZM47.6963 12.4805C49.1937 12.4805 50.4976 12.8866 51.6074 13.7158C52.77 14.598 53.3339 15.7098 53.3516 17.0684V29.1719C52.3475 28.8367 51.8542 28.325 51.5723 27.8486C51.3786 27.5136 50.9206 27.4605 50.6387 27.7246C50.2335 28.1128 49.7396 28.4308 49.1406 28.6602C48.3127 28.9953 47.3966 29.1543 46.4102 29.1543C44.7894 29.1543 43.4855 28.7482 42.5166 27.9189C41.5304 27.0898 41.0372 25.9608 41.0371 24.585C41.0371 23.2089 41.6537 22.0795 42.9043 21.1797C44.0318 20.3857 45.4241 19.9087 47.0801 19.7676C48.2423 19.6617 49.1228 19.4852 49.7041 19.2383C50.5321 18.9031 50.9375 18.3563 50.9375 17.5977C50.9375 16.7684 50.6205 16.0626 49.9863 15.498C49.3521 14.9334 48.6299 14.6514 47.7139 14.6514C46.7979 14.6514 45.9878 14.916 45.3008 15.4629C44.9837 15.7099 44.7543 15.992 44.5781 16.292C44.3491 16.6801 44.0496 16.9267 43.1514 16.9268H41.6709C41.7062 15.6213 42.4643 14.5451 43.6445 13.6982C44.772 12.8867 46.1108 12.4805 47.6963 12.4805ZM99.3828 26.7373C99.3827 28.0781 98.3076 29.1543 96.9688 29.1543V18.709C96.9688 17.3681 98.044 16.292 99.3828 16.292V26.7373ZM93.958 26.7363C93.958 28.0773 92.8828 29.1533 91.5439 29.1533V10.7334C91.5441 9.39257 92.6192 8.31641 93.958 8.31641V26.7363ZM50.8848 20.8262C50.2506 21.3555 49.0527 21.7085 47.291 21.8496L46.6221 21.8848C45.759 21.9553 45.0188 22.2201 44.4023 22.6963C43.7507 23.1902 43.4152 23.8256 43.415 24.5664C43.415 25.2544 43.7146 25.8196 44.3311 26.2783C44.9124 26.6841 45.5998 26.8779 46.3926 26.8779C47.6257 26.8779 48.6827 26.5252 49.5459 25.7842C50.4796 25.0608 50.9375 24.1253 50.9199 22.9961L50.8848 20.8262ZM63.7803 14.5977C62.4414 14.5977 61.261 15.0571 60.2744 15.9746C59.288 16.8744 58.724 18.0031 58.6006 19.3262V20.3145C58.7239 21.673 59.2878 22.8022 60.3096 23.7197C61.3313 24.6548 62.5292 25.0958 63.9033 25.0605C65.2597 25.0252 66.4227 24.5318 67.4092 23.5791C68.3957 22.6263 68.9237 21.4787 68.9941 20.1201C69.0821 18.6205 68.5891 17.3322 67.5674 16.2207C66.5281 15.1447 65.2774 14.5978 63.7803 14.5977ZM81.4668 14.5977C80.1279 14.5977 78.9475 15.0571 77.9609 15.9746C76.9746 16.8743 76.4105 18.0031 76.2871 19.3262V20.3145C76.4104 21.673 76.9744 22.8023 77.9961 23.7197C79.0178 24.6548 80.2158 25.0958 81.5898 25.0605C82.9462 25.0253 84.1092 24.5317 85.0957 23.5791C86.0822 22.6263 86.6112 21.4787 86.6816 20.1201C86.752 18.6205 86.2766 17.3322 85.2549 16.2207C84.2155 15.1444 82.9642 14.5977 81.4668 14.5977ZM98.1689 12.4805C98.8403 12.4805 99.3848 13.0259 99.3848 13.6982C99.3848 14.3706 98.8403 14.916 98.1689 14.916C97.4976 14.916 96.9531 14.3706 96.9531 13.6982C96.9531 13.0259 97.4976 12.4805 98.1689 12.4805Z" fill="white"/>
<path d="M10.7755 5.42277C11.3698 5.15069 11.913 5.15079 12.4054 5.42277L25.295 12.5653C24.1743 12.4633 23.3586 12.413 22.8322 12.413C21.8644 12.413 20.9135 12.5144 19.9796 12.6845C19.0626 12.8546 18.2473 13.1611 17.5001 13.5693C16.753 13.9774 16.1248 14.5052 15.6154 15.1855C15.1061 15.8657 14.7662 16.6988 14.6134 17.7021H19.0792C19.2321 16.9027 19.6402 16.3077 20.3195 15.9335C20.9987 15.5423 21.7458 15.3554 22.5948 15.3554C22.9005 15.3554 23.2406 15.3717 23.5802 15.4228C23.9197 15.4738 24.2424 15.5758 24.548 15.7118C24.8366 15.8649 25.0913 16.0524 25.295 16.3075C25.4988 16.5626 25.6007 16.8858 25.6007 17.2939C25.6007 17.8038 25.4649 18.195 25.1935 18.4501C24.9218 18.7222 24.514 18.9098 23.9708 19.0458C23.4274 19.1819 22.7473 19.2668 21.9152 19.3349C21.0831 19.3859 20.0979 19.4883 18.9943 19.6073C16.9059 19.8455 15.2759 20.4234 14.1212 21.3417C12.9835 22.2771 12.4054 23.5187 12.4054 25.0663C12.4054 25.6275 12.5246 26.1548 12.7452 26.665C12.966 27.1582 13.3059 27.6009 13.7814 27.9921C14.2567 28.3661 14.8341 28.672 15.547 28.9101C16.2602 29.1312 17.0759 29.2499 18.0099 29.2499L18.8419 29.2675L7.48157 34.5741C6.88721 34.8463 6.34318 34.8463 5.85071 34.5741C5.35837 34.3021 5.15461 33.8936 5.23938 33.3495L9.75696 6.66398C9.84191 6.10287 10.1813 5.69486 10.7755 5.42277ZM24.2072 22.7196C24.0713 23.1617 23.9011 23.6042 23.6974 24.0292C23.5106 24.4542 23.2394 24.8285 22.8829 25.1855C22.5433 25.5256 22.1184 25.8144 21.5919 26.0185C21.0995 26.2395 20.4375 26.3417 19.7413 26.3417C19.0451 26.3417 18.4338 26.1884 17.9073 25.8993C17.3809 25.5932 17.1085 25.1508 17.1085 24.5556C17.1086 24.0625 17.2105 23.654 17.4142 23.331C17.6349 23.0079 17.8904 22.7534 18.213 22.5663C18.5186 22.3963 18.8918 22.2601 19.3331 22.1581C19.7576 22.0731 20.1824 22.005 20.6407 21.954C21.2181 21.92 21.9146 21.8691 22.7296 21.7841C23.4428 21.6991 24.0884 21.4949 24.6827 21.1718L24.2072 22.7196ZM34.2618 17.5146C34.7372 17.7867 35.0932 18.1443 35.297 18.6034C35.5008 19.0286 35.5518 19.5051 35.4669 19.9814C35.3819 20.4744 35.1609 20.9508 34.8214 21.3759C34.4479 21.8349 33.9894 22.1917 33.4122 22.4638L28.3517 24.828L29.6769 19.3173C29.9315 18.28 30.0499 17.3785 30.0499 16.6132C30.0669 16.001 29.9656 15.4737 29.7618 15.0146L34.2618 17.5146Z" fill="#ED1164"/>
</svg>
