<svg width="105" height="40" viewBox="0 0 105 40" fill="none" xmlns="http://www.w3.org/2000/svg">
<path d="M64.0244 12.5012C65.8917 12.5718 67.5126 13.2601 68.8867 14.5833C70.2608 15.9065 71.0007 17.5128 71.1064 19.3831C71.2472 21.5001 70.5782 23.3353 69.1514 24.9055C67.6893 26.4404 65.9097 27.216 63.7959 27.2161C62.7917 27.2161 61.8399 27.0222 60.9414 26.634C60.3954 26.4047 59.8847 26.1049 59.4268 25.7698C59.0922 25.5229 58.599 25.7695 58.5986 26.1926V31.0979C58.5986 32.4387 57.5242 33.5147 56.1855 33.5149V12.5012L56.3613 12.6604C56.9425 13.1719 57.6119 13.489 58.3691 13.595C59.1266 13.7008 59.8667 13.5776 60.5537 13.2424C61.6635 12.6955 62.8265 12.4483 64.0244 12.5012ZM81.7119 12.5012C83.579 12.5719 85.1993 13.2603 86.5732 14.5833C87.9473 15.9065 88.6873 17.5128 88.793 19.3831C88.9338 21.5001 88.2647 23.3353 86.8379 24.9055C85.3757 26.4404 83.5963 27.2161 81.4824 27.2161C80.4784 27.2161 79.5273 27.0221 78.6289 26.634C78.0828 26.4047 77.5713 26.105 77.1133 25.7698C76.7787 25.5229 76.2855 25.7695 76.2852 26.1926V31.0979C76.2852 32.4388 75.2109 33.5149 73.8721 33.5149V12.5012L74.0479 12.6604C74.6292 13.1721 75.2991 13.4891 76.0566 13.595C76.8141 13.7008 77.5542 13.5777 78.2412 13.2424C79.351 12.6956 80.5141 12.4483 81.7119 12.5012ZM47.6943 12.4836C49.1917 12.4837 50.4956 12.8897 51.6055 13.719C52.7681 14.6012 53.332 15.713 53.3496 17.0715V29.175C52.3456 28.8399 51.8522 28.3281 51.5703 27.8518C51.3766 27.5168 50.9186 27.4636 50.6367 27.7278C50.2315 28.1159 49.7376 28.434 49.1387 28.6633C48.3107 28.9985 47.3947 29.1575 46.4082 29.1575C44.7875 29.1575 43.4836 28.7514 42.5146 27.9221C41.5284 27.093 41.0353 25.964 41.0352 24.5881C41.0352 23.212 41.6518 22.0827 42.9023 21.1829C44.0298 20.3889 45.4222 19.9119 47.0781 19.7708C48.2404 19.6649 49.1209 19.4884 49.7021 19.2415C50.5301 18.9062 50.9355 18.3595 50.9355 17.6008C50.9355 16.7716 50.6186 16.0658 49.9844 15.5012C49.3502 14.9366 48.628 14.6545 47.7119 14.6545C46.7959 14.6545 45.9859 14.9192 45.2988 15.4661C44.9817 15.7131 44.7523 15.9952 44.5762 16.2952C44.3472 16.6833 44.0476 16.9299 43.1494 16.9299H41.6689C41.7043 15.6244 42.4624 14.5483 43.6426 13.7014C44.77 12.8899 46.1089 12.4836 47.6943 12.4836ZM99.3809 26.7405C99.3807 28.0813 98.3056 29.1575 96.9668 29.1575V18.7122C96.9669 17.3713 98.042 16.2952 99.3809 16.2952V26.7405ZM93.9561 26.7395C93.9561 28.0804 92.8809 29.1565 91.542 29.1565V10.7366C91.5421 9.39574 92.6173 8.31958 93.9561 8.31958V26.7395ZM50.8828 20.8293C50.2486 21.3587 49.0507 21.7116 47.2891 21.8528L46.6201 21.8879C45.7571 21.9585 45.0169 22.2233 44.4004 22.6995C43.7487 23.1934 43.4132 23.8287 43.4131 24.5696C43.4131 25.2576 43.7127 25.8228 44.3291 26.2815C44.9104 26.6873 45.5979 26.8811 46.3906 26.8811C47.6238 26.8811 48.6807 26.5284 49.5439 25.7874C50.4776 25.064 50.9356 24.1285 50.918 22.9993L50.8828 20.8293ZM63.7783 14.6008C62.4394 14.6008 61.259 15.0603 60.2725 15.9778C59.286 16.8775 58.722 18.0062 58.5986 19.3293V20.3176C58.722 21.6762 59.2858 22.8054 60.3076 23.7229C61.3294 24.658 62.5273 25.099 63.9014 25.0637C65.2578 25.0284 66.4207 24.5349 67.4072 23.5823C68.3938 22.6295 68.9217 21.4819 68.9922 20.1233C69.0802 18.6237 68.5871 17.3354 67.5654 16.2239C66.5262 15.1479 65.2754 14.6009 63.7783 14.6008ZM81.4648 14.6008C80.126 14.6008 78.9455 15.0603 77.959 15.9778C76.9727 16.8775 76.4085 18.0063 76.2852 19.3293V20.3176C76.4085 21.6761 76.9725 22.8054 77.9941 23.7229C79.0158 24.658 80.2139 25.0989 81.5879 25.0637C82.9442 25.0284 84.1073 24.5348 85.0938 23.5823C86.0803 22.6295 86.6092 21.4819 86.6797 20.1233C86.7501 18.6237 86.2746 17.3354 85.2529 16.2239C84.2135 15.1476 82.9623 14.6008 81.4648 14.6008ZM98.167 12.4836C98.8383 12.4836 99.3828 13.0291 99.3828 13.7014C99.3828 14.3738 98.8383 14.9192 98.167 14.9192C97.4957 14.9192 96.9512 14.3738 96.9512 13.7014C96.9512 13.0291 97.4957 12.4837 98.167 12.4836Z" fill="black"/>
<path d="M10.7736 5.42418C11.3678 5.1522 11.9112 5.15225 12.4035 5.42418L25.2931 12.5677C24.1724 12.4657 23.3567 12.4144 22.8302 12.4144C21.8624 12.4144 20.9116 12.5168 19.9777 12.6869C19.0608 12.8569 18.2454 13.1625 17.4982 13.5707C16.7511 13.9788 16.1229 14.5066 15.6135 15.1869C15.104 15.8672 14.7643 16.701 14.6115 17.7045H19.0773C19.2302 16.9051 19.6383 16.3091 20.3176 15.9349C20.9967 15.5439 21.744 15.3568 22.5929 15.3568C22.8985 15.3568 23.2379 15.3742 23.5773 15.4252C23.917 15.4762 24.2404 15.5782 24.5461 15.7142C24.8346 15.8672 25.0895 16.054 25.2931 16.3089C25.4969 16.5641 25.5988 16.8881 25.5988 17.2963C25.5987 17.8063 25.4622 18.1975 25.1906 18.4525C24.9189 18.7245 24.5112 18.9112 23.9679 19.0472C23.4246 19.1833 22.7453 19.2683 21.9133 19.3363C21.0812 19.3873 20.0961 19.4897 18.9924 19.6088C16.9038 19.8469 15.274 20.4257 14.1193 21.3441C12.9815 22.2795 12.4035 23.521 12.4035 25.0687C12.4035 25.6298 12.5226 26.1572 12.7433 26.6673C12.9641 27.1605 13.3041 27.6024 13.7795 27.9935C14.2549 28.3676 14.8319 28.6744 15.5451 28.9125C16.2583 29.1336 17.074 29.2523 18.008 29.2523L18.84 29.2689L7.47869 34.5755C6.88444 34.8475 6.34119 34.8476 5.8488 34.5755C5.35639 34.3034 5.15257 33.8952 5.23748 33.3509L9.75505 6.66637C9.83996 6.10511 10.1793 5.6963 10.7736 5.42418ZM24.2052 22.7211C24.0694 23.1633 23.8993 23.6054 23.6955 24.0306C23.5088 24.4556 23.2374 24.8298 22.881 25.1869C22.5414 25.527 22.1164 25.8168 21.59 26.0209C21.0977 26.2419 20.4355 26.3441 19.7394 26.3441C19.0432 26.3441 18.4309 26.1908 17.9045 25.9017C17.3782 25.5956 17.1066 25.1531 17.1066 24.558C17.1066 24.0648 17.2085 23.6565 17.4123 23.3334C17.633 23.0103 17.8876 22.7548 18.2101 22.5677C18.5158 22.3977 18.8897 22.2616 19.3312 22.1595C19.7557 22.0745 20.1804 22.0065 20.6388 21.9554C21.2162 21.9214 21.9126 21.8705 22.7277 21.7855C23.4409 21.7005 24.0865 21.4963 24.6808 21.1732L24.2052 22.7211ZM34.259 17.517C34.7343 17.789 35.0913 18.1458 35.2951 18.6048C35.4989 19.03 35.5499 19.5066 35.465 19.9828C35.3801 20.476 35.1591 20.9521 34.8195 21.3773C34.4459 21.8365 33.9877 22.1941 33.4103 22.4662L28.3498 24.8304L29.674 19.3197C29.9287 18.2824 30.048 17.3809 30.048 16.6156C30.065 16.0034 29.9627 15.4761 29.759 15.017L34.259 17.517Z" fill="#ED1164"/>
</svg>
