<svg width="95" height="120" viewBox="0 0 95 120" fill="none" xmlns="http://www.w3.org/2000/svg">
<path d="M87.1064 1.17636L31.1797 1.17728C30.8585 1.17738 30.55 1.30148 30.3174 1.52299L15.7131 15.4314L15.7121 15.4324L1.85493 28.5977C1.60622 28.834 1.4653 29.1619 1.4653 29.5049L1.46667 113.281C1.46672 116.342 3.9478 118.824 7.00875 118.824L87.1084 118.823C90.1695 118.823 92.6513 116.341 92.6512 113.28L92.6495 6.71924C92.6495 3.65815 90.1675 1.17631 87.1064 1.17636Z" fill="#7011ED" stroke="#7011ED" stroke-width="0.357587"/>
<path d="M30.6078 26.3894L30.6074 1.40773C30.6074 1.25376 30.4229 1.17486 30.3116 1.28124L1.62627 28.6925C1.51218 28.8016 1.58935 28.994 1.74716 28.994L28.0037 28.9936C29.4419 28.9936 30.6079 27.8276 30.6078 26.3894Z" fill="url(#paint0_linear_3123_32)"/>
<mask id="path-3-inside-1_3123_32" fill="white">
<path d="M8.24805 106.122C8.24805 102.172 11.45 98.9702 15.3998 98.9702H80.4903C84.4401 98.9702 87.6421 102.172 87.6421 106.122V118.995H8.24805V106.122Z"/>
</mask>
<path d="M8.24805 106.122C8.24805 102.172 11.45 98.9702 15.3998 98.9702H80.4903C84.4401 98.9702 87.6421 102.172 87.6421 106.122V118.995H8.24805V106.122Z" fill="url(#paint1_linear_3123_32)" fill-opacity="0.8"/>
<path d="M7.89046 106.122C7.89046 101.975 11.2525 98.6126 15.3998 98.6126H80.4903C84.6376 98.6126 87.9997 101.975 87.9997 106.122H87.2845C87.2845 102.37 84.2427 99.3278 80.4903 99.3278H15.3998C11.6475 99.3278 8.60563 102.37 8.60563 106.122H7.89046ZM8.60563 106.122M87.6421 118.995H8.24805H87.6421M7.89046 118.995V106.122C7.89046 101.975 11.2525 98.6126 15.3998 98.6126V99.3278C11.6475 99.3278 8.60563 102.37 8.60563 106.122V118.995H7.89046ZM80.4903 98.6126C84.6376 98.6126 87.9997 101.975 87.9997 106.122V118.995H87.2845V106.122C87.2845 102.37 84.2427 99.3278 80.4903 99.3278V98.6126Z" fill="url(#paint2_linear_3123_32)" style="mix-blend-mode:soft-light" mask="url(#path-3-inside-1_3123_32)"/>
<defs>
<linearGradient id="paint0_linear_3123_32" x1="24.8002" y1="23.1058" x2="16.5896" y2="14.1214" gradientUnits="userSpaceOnUse">
<stop stop-color="white"/>
<stop offset="1" stop-color="white" stop-opacity="0.6"/>
</linearGradient>
<linearGradient id="paint1_linear_3123_32" x1="36.2486" y1="118.995" x2="87.2629" y2="98.0468" gradientUnits="userSpaceOnUse">
<stop stop-color="#1FC16B"/>
<stop offset="1" stop-color="#1FC16B" stop-opacity="0.6"/>
</linearGradient>
<linearGradient id="paint2_linear_3123_32" x1="33.7804" y1="98.7579" x2="80.7203" y2="118.126" gradientUnits="userSpaceOnUse">
<stop stop-color="white"/>
<stop offset="1" stop-color="white" stop-opacity="0"/>
</linearGradient>
</defs>
</svg>
