<svg width="595" height="842" viewBox="0 0 595 842" fill="none" xmlns="http://www.w3.org/2000/svg">
<g clip-path="url(#clip0_3254_156798)">
<rect width="595" height="842" fill="#F8F7F5"/>
<path d="M80.7043 824.873V823.219L78.6833 825.056V706.735C78.6833 697.916 76.846 691.179 73.1715 686.525C69.4969 681.871 64.23 679.543 57.3708 679.543C49.7767 679.543 44.0811 681.442 40.284 685.239C36.487 689.036 34.5884 693.384 34.5884 698.284V713.166C34.5884 719.29 32.4449 724.434 28.1579 728.599C23.8709 732.763 18.2978 734.846 11.4386 734.846C6.66168 734.846 2.68089 733.437 -0.503741 730.62C-3.56589 727.68 -5.09696 723.271 -5.09696 717.391C-5.09696 710.9 -2.52476 704.592 2.61965 698.467C7.76405 692.221 15.3582 687.076 25.402 683.034C35.5683 678.992 48.0006 676.971 62.6989 676.971C82.7866 676.971 97.7911 681.197 107.712 689.648C117.756 697.977 122.778 709.859 122.778 725.292V820.647C122.778 824.934 123.513 828.057 124.983 830.017C126.453 831.854 128.29 832.773 130.495 832.773C132.7 832.773 134.659 832.099 136.374 830.752C138.089 829.405 139.191 827.139 139.681 823.954C139.681 823.587 139.743 823.342 139.865 823.219C140.11 822.974 140.355 822.852 140.6 822.852C140.845 822.852 141.029 822.974 141.151 823.219C141.396 823.342 141.519 823.587 141.519 823.954C141.519 826.281 140.416 829.098 138.211 832.406C136.129 835.713 132.7 838.714 127.923 841.408C123.146 843.98 116.776 845.267 108.815 845.267C99.016 845.267 91.8506 843.368 87.3186 839.571C82.9091 835.774 80.7043 830.875 80.7043 824.873ZM-14.2834 806.316C-14.2834 792.965 -8.77153 782.248 2.25219 774.164C13.2759 765.957 30.7914 761.854 54.7986 761.854C62.2702 761.854 68.3945 762.65 73.1715 764.242C78.0709 765.712 82.6029 767.549 86.7674 769.754L85.2976 771.04C81.133 769.08 76.9073 767.549 72.6203 766.447C68.3333 765.345 63.4951 764.793 58.1057 764.793C48.9193 764.793 41.8151 767.856 36.7932 773.98C31.8938 780.104 29.444 788.739 29.444 799.886C29.444 810.664 31.8325 818.871 36.6095 824.505C41.3864 830.017 47.5719 832.773 55.1661 832.773C60.3105 832.773 65.3324 831.609 70.2318 829.282C75.2537 826.832 79.4183 823.342 82.7254 818.81L84.7464 819.912C79.357 828.119 71.9466 834.427 62.5152 838.836C53.2063 843.123 43.1624 845.267 32.3837 845.267C18.5428 845.267 7.27411 841.653 -1.42239 834.427C-9.99639 827.077 -14.2834 817.707 -14.2834 806.316ZM188.031 678.441V702.693V703.979V917.839C188.031 919.432 188.337 920.718 188.949 921.698C189.684 922.678 190.848 923.29 192.44 923.535L204.015 925.372C204.75 925.495 205.24 925.679 205.485 925.923C205.73 926.168 205.852 926.475 205.852 926.842C205.852 927.087 205.73 927.332 205.485 927.577C205.24 927.822 204.872 927.945 204.382 927.945H130.34C129.972 927.945 129.605 927.822 129.237 927.577C128.992 927.332 128.87 927.087 128.87 926.842C128.87 926.475 129.054 926.107 129.421 925.74C129.789 925.495 130.401 925.311 131.258 925.189L139.71 923.535C141.302 923.29 142.405 922.678 143.017 921.698C143.752 920.718 144.119 919.493 144.119 918.023V696.63C144.119 695.895 143.936 695.344 143.568 694.977C143.201 694.487 142.588 694.242 141.731 694.242H129.789C129.176 694.242 128.747 694.119 128.503 693.874C128.258 693.629 128.135 693.323 128.135 692.955C128.135 692.588 128.258 692.343 128.503 692.221C128.87 691.976 129.237 691.792 129.605 691.669L182.335 676.971C183.437 676.604 184.172 676.42 184.54 676.42C185.03 676.297 185.52 676.236 186.01 676.236C186.622 676.236 187.112 676.481 187.479 676.971C187.847 677.339 188.031 677.828 188.031 678.441ZM184.907 709.675L182.886 707.47C191.093 697.181 199.544 689.526 208.241 684.504C217.06 679.482 227.104 676.971 238.372 676.971C251.478 676.971 263.053 680.217 273.097 686.709C283.141 693.078 291.041 702.203 296.798 714.084C302.555 725.965 305.433 740.113 305.433 756.526C305.433 774.898 302.065 790.76 295.328 804.111C288.714 817.462 279.65 827.751 268.136 834.978C256.745 842.204 243.945 845.818 229.737 845.818C217.733 845.818 207.935 843.613 200.34 839.204C192.869 834.794 186.622 827.874 181.6 818.442L184.907 816.789C188.337 824.138 192.808 829.772 198.319 833.692C203.954 837.489 210.323 839.387 217.427 839.387C225.756 839.387 233.167 836.999 239.658 832.222C246.15 827.322 251.233 819.238 254.908 807.97C258.705 796.578 260.603 781.145 260.603 761.67C260.603 743.542 258.95 728.966 255.643 717.943C252.336 706.796 247.804 698.651 242.047 693.507C236.413 688.362 229.921 685.79 222.572 685.79C216.692 685.79 210.507 687.689 204.015 691.486C197.523 695.283 191.154 701.346 184.907 709.675ZM356.53 678.441V702.693V703.979V917.839C356.53 919.432 356.836 920.718 357.449 921.698C358.183 922.678 359.347 923.29 360.939 923.535L372.514 925.372C373.249 925.495 373.739 925.679 373.984 925.923C374.229 926.168 374.352 926.475 374.352 926.842C374.352 927.087 374.229 927.332 373.984 927.577C373.739 927.822 373.372 927.945 372.882 927.945H298.839C298.472 927.945 298.104 927.822 297.737 927.577C297.492 927.332 297.369 927.087 297.369 926.842C297.369 926.475 297.553 926.107 297.92 925.74C298.288 925.495 298.9 925.311 299.758 925.189L308.209 923.535C309.802 923.29 310.904 922.678 311.516 921.698C312.251 920.718 312.619 919.493 312.619 918.023V696.63C312.619 695.895 312.435 695.344 312.068 694.977C311.7 694.487 311.088 694.242 310.23 694.242H298.288C297.675 694.242 297.247 694.119 297.002 693.874C296.757 693.629 296.634 693.323 296.634 692.955C296.634 692.588 296.757 692.343 297.002 692.221C297.369 691.976 297.737 691.792 298.104 691.669L350.834 676.971C351.937 676.604 352.672 676.42 353.039 676.42C353.529 676.297 354.019 676.236 354.509 676.236C355.121 676.236 355.611 676.481 355.979 676.971C356.346 677.339 356.53 677.828 356.53 678.441ZM353.407 709.675L351.386 707.47C359.592 697.181 368.044 689.526 376.74 684.504C385.559 679.482 395.603 676.971 406.872 676.971C419.978 676.971 431.552 680.217 441.596 686.709C451.64 693.078 459.54 702.203 465.297 714.084C471.054 725.965 473.933 740.113 473.933 756.526C473.933 774.898 470.564 790.76 463.827 804.111C457.213 817.462 448.149 827.751 436.636 834.978C425.244 842.204 412.445 845.818 398.236 845.818C386.233 845.818 376.434 843.613 368.84 839.204C361.368 834.794 355.121 827.874 350.099 818.442L353.407 816.789C356.836 824.138 361.307 829.772 366.819 833.692C372.453 837.489 378.822 839.387 385.927 839.387C394.256 839.387 401.666 836.999 408.158 832.222C414.649 827.322 419.733 819.238 423.407 807.97C427.204 796.578 429.103 781.145 429.103 761.67C429.103 743.542 427.449 728.966 424.142 717.943C420.835 706.796 416.303 698.651 410.546 693.507C404.912 688.362 398.42 685.79 391.071 685.79C385.192 685.79 379.006 687.689 372.514 691.486C366.023 695.283 359.653 701.346 353.407 709.675ZM528.704 571.327V831.854C528.704 833.447 529.01 834.733 529.622 835.713C530.357 836.693 531.521 837.305 533.113 837.55L543.218 839.387C543.953 839.387 544.443 839.571 544.688 839.938C544.933 840.183 545.056 840.49 545.056 840.857C545.056 841.102 544.933 841.347 544.688 841.592C544.443 841.837 544.076 841.959 543.586 841.959H469.543C469.176 841.959 468.808 841.837 468.441 841.592C468.196 841.347 468.073 841.102 468.073 840.857C468.073 840.49 468.257 840.183 468.625 839.938C468.992 839.571 469.604 839.326 470.462 839.204L480.383 837.55C481.975 837.305 483.078 836.693 483.69 835.713C484.425 834.733 484.793 833.508 484.793 832.038V589.7C484.793 588.965 484.609 588.414 484.241 588.046C483.874 587.556 483.262 587.311 482.404 587.311H470.462C469.849 587.311 469.421 587.189 469.176 586.944C468.931 586.699 468.808 586.393 468.808 586.025C468.808 585.535 468.931 585.229 469.176 585.107C469.543 584.862 469.911 584.678 470.278 584.556L523.008 569.857C524.111 569.612 524.846 569.49 525.213 569.49C525.703 569.367 526.193 569.306 526.683 569.306C527.295 569.306 527.785 569.49 528.153 569.857C528.52 570.225 528.704 570.715 528.704 571.327ZM595.624 679.543V831.854C595.624 833.447 595.93 834.733 596.543 835.713C597.278 836.693 598.441 837.305 600.034 837.55L610.139 839.387C610.874 839.387 611.364 839.571 611.609 839.938C611.853 840.183 611.976 840.49 611.976 840.857C611.976 841.102 611.853 841.347 611.609 841.592C611.364 841.837 610.996 841.959 610.506 841.959H536.463C536.096 841.959 535.729 841.837 535.361 841.592C535.116 841.347 534.994 841.102 534.994 840.857C534.994 840.49 535.116 840.245 535.361 840.122C535.606 839.877 536.096 839.693 536.831 839.571L547.303 837.55C548.896 837.305 549.998 836.693 550.611 835.713C551.345 834.733 551.713 833.508 551.713 832.038V697.732C551.713 696.998 551.529 696.446 551.162 696.079C550.794 695.589 550.182 695.344 549.324 695.344H537.382C536.77 695.344 536.341 695.221 536.096 694.977C535.851 694.732 535.729 694.425 535.729 694.058C535.729 693.69 535.851 693.445 536.096 693.323C536.463 693.078 536.831 692.894 537.198 692.772L589.929 678.073C591.031 677.706 591.766 677.522 592.133 677.522C592.623 677.4 593.113 677.339 593.603 677.339C594.216 677.339 594.705 677.584 595.073 678.073C595.44 678.441 595.624 678.931 595.624 679.543ZM572.842 654.189C565.125 654.189 558.817 651.617 553.918 646.472C549.141 641.328 546.752 635.081 546.752 627.732C546.752 620.26 549.141 613.952 553.918 608.808C558.817 603.663 565.125 601.091 572.842 601.091C580.558 601.091 586.866 603.663 591.766 608.808C596.788 613.952 599.299 620.26 599.299 627.732C599.299 635.081 596.788 641.328 591.766 646.472C586.866 651.617 580.558 654.189 572.842 654.189Z" fill="white"/>
<path d="M139.823 56.4774L138.313 56.7539C137.987 56.8248 137.739 56.9453 137.569 57.1154C137.399 57.2855 137.314 57.5123 137.314 57.7959V81.9531C137.314 82.4493 137.462 82.8038 137.76 83.0164C138.072 83.2291 138.547 83.3354 139.185 83.3354H143.8C144.608 83.3354 145.295 83.2291 145.862 83.0164C146.429 82.7896 146.933 82.4068 147.372 81.8681C147.826 81.3152 148.272 80.5284 148.712 79.5076L150.009 76.488C150.137 76.247 150.278 76.0769 150.434 75.9776C150.604 75.8784 150.803 75.8571 151.03 75.9138C151.271 75.9564 151.441 76.0627 151.54 76.2328C151.639 76.4029 151.646 76.6298 151.561 76.9133L149.733 84.5262C149.633 84.909 149.499 85.1855 149.328 85.3556C149.173 85.5399 148.946 85.632 148.648 85.632C148.393 85.632 148.145 85.5611 147.904 85.4194C147.677 85.2918 147.415 85.1642 147.117 85.0366C146.819 84.909 146.436 84.8452 145.969 84.8452H130.126C129.828 84.8452 129.601 84.7885 129.445 84.6751C129.304 84.5475 129.233 84.3845 129.233 84.186C129.233 83.8174 129.467 83.5693 129.935 83.4417L131.444 83.1653C131.77 83.0944 132.019 82.9739 132.189 82.8038C132.359 82.6336 132.444 82.4068 132.444 82.1233V57.7959C132.444 57.5123 132.359 57.2855 132.189 57.1154C132.019 56.9453 131.77 56.8248 131.444 56.7539L129.935 56.4774C129.467 56.3498 129.233 56.1017 129.233 55.7331C129.233 55.5205 129.304 55.3575 129.445 55.244C129.601 55.1306 129.828 55.0739 130.126 55.0739H139.632C139.943 55.0739 140.17 55.1306 140.312 55.244C140.454 55.3575 140.525 55.5205 140.525 55.7331C140.525 56.1017 140.291 56.3498 139.823 56.4774ZM171.233 72.6177C171.233 73.1706 171.063 73.603 170.723 73.9149C170.397 74.2126 169.915 74.3615 169.277 74.3615H155.752V73.1494H165.853C166.477 73.1494 166.789 72.8729 166.789 72.32C166.789 70.3494 166.385 68.8254 165.577 67.748C164.769 66.6564 163.691 66.1106 162.344 66.1106C161.281 66.1106 160.346 66.4225 159.537 67.0462C158.744 67.6558 158.12 68.5277 157.666 69.6619C157.227 70.796 157.007 72.1428 157.007 73.7022C157.007 76.5376 157.673 78.6925 159.006 80.1669C160.338 81.6271 162.082 82.3572 164.237 82.3572C165.641 82.3572 166.86 82.024 167.895 81.3577C168.93 80.6914 169.638 79.8124 170.021 78.7208C170.177 78.5082 170.305 78.3664 170.404 78.2955C170.503 78.2105 170.617 78.1679 170.744 78.1679C170.914 78.1679 171.035 78.2388 171.106 78.3806C171.191 78.5224 171.226 78.6996 171.212 78.9122C171.127 80.0889 170.709 81.1663 169.957 82.1445C169.22 83.1227 168.228 83.9025 166.98 84.4837C165.747 85.0508 164.343 85.3343 162.77 85.3343C160.828 85.3343 159.119 84.9232 157.645 84.1009C156.17 83.2787 155.015 82.1233 154.179 80.6347C153.356 79.132 152.945 77.374 152.945 75.3609C152.945 73.3053 153.349 71.4765 154.157 69.8745C154.965 68.2584 156.114 66.9895 157.602 66.068C159.105 65.1324 160.877 64.6645 162.919 64.6645C164.62 64.6645 166.094 65.0048 167.342 65.6853C168.589 66.3658 169.546 67.3014 170.213 68.4923C170.893 69.6831 171.233 71.0583 171.233 72.6177ZM174.482 66.6847L173.206 66.387C172.908 66.302 172.696 66.2027 172.568 66.0893C172.455 65.9759 172.398 65.8412 172.398 65.6853C172.398 65.501 172.462 65.3592 172.589 65.26C172.731 65.1607 172.915 65.1111 173.142 65.1111H174.609C174.936 65.1111 175.198 65.0615 175.396 64.9622C175.609 64.8488 175.793 64.6504 175.949 64.3668L177.863 61.1345C178.047 60.851 178.232 60.6454 178.416 60.5178C178.614 60.3902 178.813 60.3264 179.011 60.3264C179.224 60.3264 179.387 60.3973 179.5 60.5391C179.628 60.6667 179.692 60.851 179.692 61.092V79.7416C179.692 80.7339 179.89 81.4924 180.287 82.0169C180.698 82.5273 181.265 82.7825 181.988 82.7825C182.471 82.7825 182.853 82.7045 183.137 82.5486C183.42 82.3926 183.647 82.2083 183.817 81.9957C184.002 81.7688 184.165 81.5633 184.306 81.379C184.462 81.1805 184.64 81.0458 184.838 80.9749C184.994 80.9608 185.114 81.0033 185.2 81.1025C185.299 81.2018 185.341 81.3719 185.327 81.6129C185.299 82.2509 185.065 82.8463 184.625 83.3992C184.2 83.9379 183.619 84.3774 182.882 84.7176C182.159 85.0437 181.315 85.2067 180.351 85.2067C178.82 85.2067 177.601 84.8098 176.693 84.0159C175.786 83.222 175.332 82.024 175.332 80.4221V67.7693C175.332 67.4574 175.269 67.2234 175.141 67.0675C175.014 66.8974 174.794 66.7698 174.482 66.6847ZM177.799 66.5784L177.821 65.1111H184.413C184.668 65.1111 184.859 65.1607 184.987 65.26C185.114 65.345 185.178 65.4797 185.178 65.664C185.178 65.9334 185.044 66.1531 184.774 66.3232C184.519 66.4933 184.108 66.5784 183.541 66.5784H177.799ZM188.117 66.6847L186.841 66.387C186.543 66.302 186.33 66.2027 186.203 66.0893C186.089 65.9759 186.033 65.8412 186.033 65.6853C186.033 65.501 186.096 65.3592 186.224 65.26C186.366 65.1607 186.55 65.1111 186.777 65.1111H188.244C188.57 65.1111 188.832 65.0615 189.031 64.9622C189.244 64.8488 189.428 64.6504 189.584 64.3668L191.498 61.1345C191.682 60.851 191.866 60.6454 192.051 60.5178C192.249 60.3902 192.448 60.3264 192.646 60.3264C192.859 60.3264 193.022 60.3973 193.135 60.5391C193.263 60.6667 193.327 60.851 193.327 61.092V79.7416C193.327 80.7339 193.525 81.4924 193.922 82.0169C194.333 82.5273 194.9 82.7825 195.623 82.7825C196.105 82.7825 196.488 82.7045 196.771 82.5486C197.055 82.3926 197.282 82.2083 197.452 81.9957C197.636 81.7688 197.799 81.5633 197.941 81.379C198.097 81.1805 198.274 81.0458 198.473 80.9749C198.629 80.9608 198.749 81.0033 198.834 81.1025C198.933 81.2018 198.976 81.3719 198.962 81.6129C198.933 82.2509 198.7 82.8463 198.26 83.3992C197.835 83.9379 197.253 84.3774 196.516 84.7176C195.793 85.0437 194.95 85.2067 193.986 85.2067C192.455 85.2067 191.235 84.8098 190.328 84.0159C189.421 83.222 188.967 82.024 188.967 80.4221V67.7693C188.967 67.4574 188.903 67.2234 188.776 67.0675C188.648 66.8974 188.428 66.7698 188.117 66.6847ZM191.434 66.5784L191.455 65.1111H198.047C198.303 65.1111 198.494 65.1607 198.622 65.26C198.749 65.345 198.813 65.4797 198.813 65.664C198.813 65.9334 198.678 66.1531 198.409 66.3232C198.154 66.4933 197.743 66.5784 197.176 66.5784H191.434ZM218.658 72.6177C218.658 73.1706 218.488 73.603 218.148 73.9149C217.822 74.2126 217.34 74.3615 216.702 74.3615H203.177V73.1494H213.278C213.902 73.1494 214.214 72.8729 214.214 72.32C214.214 70.3494 213.81 68.8254 213.001 67.748C212.193 66.6564 211.116 66.1106 209.769 66.1106C208.706 66.1106 207.77 66.4225 206.962 67.0462C206.168 67.6558 205.544 68.5277 205.091 69.6619C204.651 70.796 204.432 72.1428 204.432 73.7022C204.432 76.5376 205.098 78.6925 206.431 80.1669C207.763 81.6271 209.507 82.3572 211.662 82.3572C213.065 82.3572 214.284 82.024 215.319 81.3577C216.354 80.6914 217.063 79.8124 217.446 78.7208C217.602 78.5082 217.729 78.3664 217.829 78.2955C217.928 78.2105 218.041 78.1679 218.169 78.1679C218.339 78.1679 218.46 78.2388 218.53 78.3806C218.615 78.5224 218.651 78.6996 218.637 78.9122C218.552 80.0889 218.133 81.1663 217.382 82.1445C216.645 83.1227 215.653 83.9025 214.405 84.4837C213.172 85.0508 211.768 85.3343 210.194 85.3343C208.252 85.3343 206.544 84.9232 205.07 84.1009C203.595 83.2787 202.44 82.1233 201.603 80.6347C200.781 79.132 200.37 77.374 200.37 75.3609C200.37 73.3053 200.774 71.4765 201.582 69.8745C202.39 68.2584 203.538 66.9895 205.027 66.068C206.53 65.1324 208.302 64.6645 210.343 64.6645C212.045 64.6645 213.519 65.0048 214.766 65.6853C216.014 66.3658 216.971 67.3014 217.637 68.4923C218.318 69.6831 218.658 71.0583 218.658 72.6177ZM226.925 73.8936C226.925 71.8947 227.216 70.2148 227.797 68.8538C228.393 67.4786 229.151 66.4366 230.072 65.7278C231.008 65.019 232 64.6645 233.05 64.6645C234.283 64.6645 235.24 65.0119 235.92 65.7065C236.615 66.4012 236.962 67.3581 236.962 68.5773C236.962 69.5272 236.757 70.2431 236.346 70.7251C235.935 71.2071 235.403 71.4481 234.751 71.4481C234.113 71.4481 233.617 71.2709 233.262 70.9165C232.908 70.5479 232.731 70.0375 232.731 69.3854V68.6837C232.716 68.2016 232.596 67.8472 232.369 67.6204C232.156 67.3794 231.795 67.2589 231.285 67.2589C230.689 67.2589 230.101 67.507 229.52 68.0032C228.952 68.4852 228.485 69.2153 228.116 70.1935C227.762 71.1717 227.584 72.4122 227.584 73.9149L226.925 73.8936ZM227.393 65.8129L227.584 71.1504V82.1871C227.584 82.5131 227.662 82.7683 227.818 82.9526C227.974 83.1227 228.229 83.2291 228.584 83.2716L230.54 83.548C230.795 83.5906 230.987 83.6685 231.114 83.782C231.242 83.8812 231.306 84.03 231.306 84.2285C231.306 84.4128 231.228 84.5617 231.072 84.6751C230.93 84.7885 230.717 84.8452 230.434 84.8452H221.545C221.262 84.8452 221.049 84.7885 220.907 84.6751C220.78 84.5617 220.716 84.4128 220.716 84.2285C220.716 84.0726 220.765 83.945 220.865 83.8458C220.978 83.7323 221.141 83.6473 221.354 83.5906L222.417 83.3567C222.686 83.2999 222.885 83.1865 223.012 83.0164C223.154 82.8321 223.225 82.5698 223.225 82.2296V68.6199C223.225 68.3363 223.175 68.1308 223.076 68.0032C222.977 67.8756 222.821 67.8047 222.608 67.7905L221.12 67.7267C220.907 67.6984 220.751 67.6417 220.652 67.5566C220.567 67.4574 220.524 67.3439 220.524 67.2164C220.524 67.0462 220.574 66.9116 220.673 66.8123C220.787 66.6989 220.978 66.5997 221.247 66.5146L224.99 65.2812C225.472 65.0969 225.826 64.9764 226.053 64.9197C226.294 64.863 226.486 64.8347 226.627 64.8347C226.868 64.8347 227.046 64.9126 227.159 65.0686C227.287 65.2103 227.365 65.4584 227.393 65.8129Z" fill="#ED1164"/>
<path d="M256.237 57.2004L256.515 56.5506H265.983C266.107 56.5506 266.2 56.5816 266.261 56.6435C266.323 56.6744 266.354 56.7208 266.354 56.7827C266.354 56.8755 266.308 56.9529 266.215 57.0148C266.153 57.0457 266.06 57.0921 265.937 57.154C265.844 57.1849 265.72 57.2004 265.565 57.2004H256.237ZM248.347 56.8291C248.347 56.7672 248.393 56.7054 248.486 56.6435C248.579 56.5816 248.687 56.5506 248.811 56.5506H255.494L259.3 43.4163C260.568 39.0846 262.348 35.7431 264.637 33.3916C266.958 31.0401 269.851 29.8643 273.316 29.8643C274.306 29.8643 275.033 30.0345 275.497 30.3748C275.992 30.6843 276.24 31.1019 276.24 31.6279C276.24 32.0611 276.085 32.4324 275.776 32.7418C275.466 33.0203 275.049 33.1595 274.523 33.1595C274.059 33.1595 273.641 33.0976 273.27 32.9739C272.898 32.8501 272.527 32.6954 272.156 32.5098C271.815 32.3241 271.429 32.1694 270.995 32.0456C270.593 31.8909 270.129 31.8136 269.603 31.8136C267.87 31.8136 266.246 32.5871 264.73 34.1341C263.214 35.6502 262.193 37.4757 261.667 39.6106C261.481 40.446 261.296 41.3278 261.11 42.2561C260.924 43.1533 260.723 44.0816 260.507 45.0407C260.321 45.9999 260.135 46.9436 259.95 47.8718C259.764 48.7691 259.547 49.6354 259.3 50.4708L244.495 102.173C244.185 103.256 243.938 104.199 243.752 105.004C243.597 105.839 243.52 106.582 243.52 107.231C243.52 107.696 243.551 108.113 243.613 108.485C243.706 108.856 243.783 109.196 243.845 109.506C243.907 109.815 243.938 110.124 243.938 110.434C243.938 110.805 243.845 111.13 243.659 111.408C243.474 111.687 243.211 111.888 242.87 112.012C242.561 112.166 242.205 112.244 241.803 112.244C240.998 112.244 240.519 111.857 240.364 111.084C240.209 110.31 240.364 109.134 240.828 107.556L254.52 60.2635C254.767 59.3972 254.581 58.701 253.963 58.175C253.344 57.6181 251.658 57.2778 248.904 57.154C248.687 57.154 248.532 57.1231 248.44 57.0612C248.378 56.9683 248.347 56.891 248.347 56.8291ZM281.631 56.0401C284.137 56.1948 286.21 57.0921 287.85 58.732C289.49 60.3718 290.588 62.646 291.145 65.5544C291.733 68.4628 291.656 71.9436 290.913 75.9969C290.387 78.9672 289.474 81.7209 288.175 84.258C286.875 86.7642 285.328 88.9455 283.534 90.802C281.739 92.6584 279.79 94.1126 277.686 95.1646C275.613 96.1856 273.524 96.6962 271.42 96.6962C269.038 96.6962 266.903 96 265.016 94.6077C263.159 93.1844 261.829 91.0495 261.024 88.203C260.22 85.3564 260.189 81.7828 260.931 77.482C261.519 74.0785 262.525 71.0309 263.948 68.339C265.371 65.6472 267.042 63.3576 268.961 61.4702C270.91 59.5828 272.967 58.1596 275.133 57.2004C277.33 56.2412 279.496 55.8545 281.631 56.0401ZM271.56 96.1392C272.983 96.1392 274.406 95.8144 275.829 95.1646C277.253 94.4839 278.614 93.5247 279.914 92.2871C281.244 91.0186 282.466 89.5334 283.58 87.8317C284.694 86.1299 285.653 84.258 286.458 82.2159C287.262 80.1738 287.881 77.9925 288.314 75.672C289.118 71.3712 289.304 67.844 288.871 65.0903C288.469 62.3056 287.602 60.2326 286.272 58.8712C284.972 57.4789 283.394 56.7054 281.538 56.5506C280.053 56.4578 278.537 56.7208 276.99 57.3396C275.474 57.9275 274.004 58.8403 272.581 60.0779C271.157 61.2846 269.827 62.7852 268.589 64.5798C267.383 66.3434 266.315 68.339 265.387 70.5668C264.49 72.7945 263.824 75.1924 263.391 77.7605C262.556 82.3397 262.432 85.9752 263.02 88.6671C263.608 91.328 264.66 93.2463 266.176 94.422C267.723 95.5668 269.518 96.1392 271.56 96.1392ZM295.685 61.9807C295.654 61.9189 295.638 61.857 295.638 61.7951C295.669 61.7023 295.716 61.594 295.777 61.4702C296.737 60.2016 297.649 59.1497 298.516 58.3143C299.413 57.4789 300.279 56.8601 301.115 56.4578C301.95 56.0556 302.755 55.8545 303.528 55.8545C304.456 55.8545 305.199 56.1175 305.756 56.6435C306.313 57.1385 306.591 57.9585 306.591 59.1033C306.591 59.753 306.483 60.5265 306.266 61.4238C306.05 62.3211 305.678 63.5432 305.152 65.0903C304.657 66.6064 303.961 68.6175 303.064 71.1237C302.198 73.599 301.099 76.7394 299.769 80.5451L299.583 80.4987C300.728 77.1881 302.043 74.0631 303.528 71.1237C305.013 68.1534 306.607 65.5234 308.308 63.2338C310.01 60.9442 311.743 59.1497 313.506 57.8502C315.27 56.5197 316.987 55.8545 318.658 55.8545C319.865 55.8545 320.777 56.1794 321.396 56.8291C322.046 57.4789 322.371 58.3297 322.371 59.3817C322.371 59.9077 322.263 60.4028 322.046 60.8669C321.829 61.3 321.536 61.6559 321.164 61.9343C320.824 62.2128 320.437 62.352 320.004 62.352C319.664 62.352 319.37 62.2437 319.122 62.0271C318.875 61.8106 318.751 61.563 318.751 61.2846C318.751 60.7895 318.813 60.3409 318.937 59.9387C319.06 59.5364 319.122 59.1342 319.122 58.732C319.122 58.1132 319.014 57.6336 318.797 57.2932C318.612 56.9219 318.24 56.7363 317.683 56.7363C316.044 56.7363 314.094 57.7883 311.836 59.8922C309.608 61.9653 307.318 65.1212 304.967 69.3601C302.615 73.599 300.419 78.9362 298.376 85.3719C297.881 86.9808 297.479 88.2958 297.17 89.3168C296.86 90.3069 296.706 91.2815 296.706 92.2407C296.706 92.6429 296.737 92.9678 296.798 93.2153C296.891 93.4629 296.984 93.6949 297.077 93.9115C297.17 94.1281 297.216 94.3447 297.216 94.5613C297.216 94.9325 297.092 95.2884 296.845 95.6287C296.597 95.9381 296.257 96.1856 295.824 96.3713C295.422 96.5879 294.958 96.6962 294.432 96.6962C293.936 96.6962 293.612 96.5569 293.457 96.2785C293.302 96 293.287 95.5668 293.41 94.979C293.534 94.3601 293.766 93.5402 294.107 92.5192L302.646 66.2505C303.791 62.6614 304.271 60.3099 304.085 59.1961C303.899 58.0513 303.281 57.4789 302.229 57.4789C301.548 57.4789 300.728 57.7728 299.769 58.3607C298.841 58.9485 297.665 60.0934 296.242 61.7951C296.149 61.8879 296.056 61.9653 295.963 62.0271C295.87 62.0581 295.777 62.0426 295.685 61.9807Z" fill="#120C40"/>
<path d="M270.991 111.172V115.514L271.158 115.949V153.158C271.158 153.626 271.247 153.982 271.426 154.227C271.626 154.472 271.915 154.639 272.294 154.728L274.666 155.062C274.955 155.129 275.167 155.229 275.3 155.363C275.434 155.496 275.501 155.663 275.501 155.864C275.501 156.087 275.411 156.265 275.233 156.398C275.077 156.532 274.821 156.599 274.465 156.599H261.939C261.628 156.599 261.383 156.532 261.205 156.398C261.049 156.265 260.971 156.087 260.971 155.864C260.971 155.686 261.038 155.519 261.171 155.363C261.305 155.229 261.527 155.129 261.839 155.062L263.442 154.728C263.821 154.639 264.099 154.472 264.278 154.227C264.478 153.982 264.578 153.637 264.578 153.192V115.113C264.578 114.779 264.511 114.535 264.378 114.379C264.266 114.201 264.066 114.1 263.776 114.078L261.372 114.011C261.104 113.989 260.915 113.922 260.804 113.811C260.692 113.699 260.637 113.555 260.637 113.377C260.637 113.176 260.692 113.02 260.804 112.909C260.937 112.775 261.171 112.653 261.505 112.542L267.885 110.437C268.375 110.259 268.764 110.137 269.054 110.07C269.343 110.003 269.6 109.97 269.822 109.97C270.223 109.97 270.513 110.081 270.691 110.304C270.891 110.504 270.991 110.794 270.991 111.172ZM269.989 118.253L269.221 117.084C270.891 114.768 272.739 112.987 274.766 111.74C276.792 110.493 279.019 109.869 281.446 109.869C283.94 109.869 286.167 110.515 288.126 111.807C290.086 113.076 291.623 114.857 292.736 117.151C293.872 119.422 294.439 122.061 294.439 125.067C294.439 128.497 293.783 131.469 292.469 133.986C291.155 136.48 289.385 138.395 287.158 139.731C284.953 141.067 282.482 141.735 279.743 141.735C277.271 141.735 275.111 141.167 273.263 140.031C271.437 138.896 269.934 137.226 268.753 135.021L269.956 133.919C270.936 135.745 272.149 137.137 273.597 138.094C275.066 139.052 276.647 139.53 278.34 139.53C280.099 139.53 281.669 139.052 283.049 138.094C284.452 137.137 285.555 135.656 286.356 133.652C287.158 131.625 287.559 129.042 287.559 125.902C287.559 122.896 287.18 120.413 286.423 118.454C285.666 116.494 284.63 115.024 283.317 114.045C282.025 113.065 280.544 112.575 278.874 112.575C277.338 112.575 275.801 113.043 274.265 113.978C272.75 114.913 271.325 116.338 269.989 118.253ZM316.313 137.292V136.825L315.946 136.791V117.285C315.946 115.347 315.5 113.866 314.61 112.842C313.719 111.796 312.427 111.272 310.735 111.272C309.043 111.272 307.773 111.651 306.927 112.408C306.103 113.143 305.691 113.978 305.691 114.913V117.418C305.691 118.42 305.357 119.211 304.689 119.79C304.021 120.369 303.13 120.658 302.017 120.658C301.082 120.658 300.347 120.402 299.812 119.89C299.3 119.378 299.044 118.654 299.044 117.719C299.044 116.45 299.534 115.214 300.514 114.011C301.516 112.809 302.963 111.818 304.856 111.038C306.749 110.259 309.065 109.869 311.804 109.869C315.411 109.869 318.094 110.66 319.854 112.241C321.635 113.8 322.526 115.926 322.526 118.621V136.558C322.526 137.359 322.671 137.938 322.96 138.294C323.249 138.651 323.628 138.829 324.096 138.829C324.586 138.829 324.964 138.706 325.231 138.461C325.499 138.217 325.699 137.916 325.833 137.56C325.899 137.448 325.977 137.359 326.066 137.292C326.155 137.203 326.256 137.159 326.367 137.159C326.523 137.159 326.634 137.214 326.701 137.326C326.79 137.437 326.835 137.593 326.835 137.793C326.835 138.328 326.634 138.896 326.233 139.497C325.855 140.098 325.265 140.61 324.463 141.033C323.684 141.479 322.693 141.701 321.49 141.701C319.82 141.701 318.54 141.323 317.649 140.566C316.758 139.786 316.313 138.695 316.313 137.292ZM297.508 134.286C297.508 131.77 298.588 129.721 300.748 128.14C302.93 126.537 306.059 125.735 310.134 125.735C311.67 125.735 313.017 125.88 314.175 126.17C315.356 126.459 316.413 126.826 317.348 127.272L316.948 128.441C316.035 128.04 315.099 127.717 314.142 127.472C313.184 127.227 312.127 127.105 310.969 127.105C308.853 127.105 307.205 127.65 306.025 128.741C304.867 129.833 304.288 131.325 304.288 133.217C304.288 135.066 304.789 136.502 305.791 137.526C306.793 138.528 308.096 139.029 309.699 139.029C311.036 139.029 312.338 138.729 313.607 138.127C314.877 137.526 315.957 136.658 316.847 135.522L317.382 136.558C316.179 138.205 314.621 139.475 312.706 140.365C310.791 141.256 308.742 141.701 306.56 141.701C303.888 141.701 301.705 141.022 300.013 139.664C298.343 138.306 297.508 136.513 297.508 134.286ZM337.86 124.132C337.86 121.037 338.306 118.431 339.196 116.316C340.109 114.201 341.267 112.608 342.67 111.539C344.095 110.448 345.587 109.903 347.146 109.903C348.994 109.903 350.42 110.426 351.422 111.473C352.446 112.497 352.958 113.933 352.958 115.782C352.958 117.207 352.635 118.287 351.989 119.022C351.366 119.756 350.564 120.124 349.584 120.124C348.627 120.124 347.881 119.857 347.347 119.322C346.834 118.765 346.578 117.975 346.578 116.951L346.545 115.915C346.545 115.136 346.378 114.568 346.044 114.212C345.71 113.833 345.142 113.644 344.34 113.644C343.427 113.644 342.537 114.034 341.668 114.813C340.8 115.592 340.087 116.761 339.53 118.32C338.974 119.879 338.695 121.838 338.695 124.199L337.86 124.132ZM338.495 111.339L338.695 120.625V137.493C338.695 137.916 338.796 138.25 338.996 138.495C339.219 138.74 339.575 138.907 340.065 138.996L343.171 139.43C343.505 139.475 343.75 139.564 343.906 139.697C344.062 139.831 344.14 140.02 344.14 140.265C344.14 140.488 344.051 140.666 343.873 140.8C343.695 140.933 343.439 141 343.105 141H329.343C329.009 141 328.753 140.933 328.575 140.8C328.419 140.644 328.341 140.466 328.341 140.265C328.341 140.065 328.408 139.898 328.541 139.764C328.697 139.631 328.909 139.53 329.176 139.464L330.98 139.129C331.358 139.04 331.637 138.873 331.815 138.628C332.015 138.384 332.115 138.049 332.115 137.626V115.247C332.115 114.891 332.048 114.635 331.915 114.479C331.804 114.301 331.603 114.201 331.314 114.178L328.875 114.111C328.63 114.089 328.441 114.022 328.307 113.911C328.196 113.8 328.14 113.655 328.14 113.477C328.14 113.276 328.207 113.109 328.341 112.976C328.474 112.842 328.708 112.72 329.042 112.608L335.556 110.671C336.135 110.448 336.569 110.315 336.858 110.27C337.148 110.203 337.382 110.17 337.56 110.17C337.849 110.17 338.061 110.27 338.194 110.471C338.35 110.649 338.451 110.938 338.495 111.339ZM381.653 122.228C381.653 122.918 381.453 123.453 381.052 123.831C380.651 124.188 380.061 124.366 379.281 124.366H358.238V122.896H373.77C374.572 122.896 374.973 122.518 374.973 121.76C374.973 118.509 374.349 116.015 373.102 114.278C371.855 112.519 370.218 111.64 368.192 111.64C366.544 111.64 365.108 112.13 363.883 113.109C362.681 114.067 361.734 115.448 361.044 117.251C360.376 119.055 360.042 121.215 360.042 123.731C360.042 128.207 361.066 131.614 363.115 133.952C365.186 136.268 367.88 137.426 371.198 137.426C373.403 137.426 375.307 136.869 376.91 135.756C378.535 134.642 379.615 133.151 380.15 131.28C380.306 131.035 380.45 130.868 380.584 130.779C380.718 130.668 380.851 130.612 380.985 130.612C381.208 130.612 381.363 130.701 381.453 130.879C381.564 131.035 381.608 131.247 381.586 131.514C381.43 133.429 380.773 135.166 379.615 136.725C378.48 138.261 376.966 139.486 375.073 140.399C373.202 141.289 371.076 141.735 368.693 141.735C365.776 141.735 363.204 141.111 360.977 139.864C358.773 138.595 357.047 136.814 355.8 134.52C354.553 132.204 353.929 129.499 353.929 126.403C353.929 123.219 354.542 120.391 355.766 117.919C357.013 115.425 358.761 113.466 361.011 112.041C363.282 110.593 365.954 109.869 369.027 109.869C371.61 109.869 373.848 110.404 375.741 111.473C377.634 112.519 379.092 113.978 380.116 115.848C381.141 117.697 381.653 119.823 381.653 122.228ZM394.445 111.272V137.56C394.445 138.027 394.534 138.384 394.713 138.628C394.913 138.873 395.191 139.04 395.548 139.129L397.285 139.464C397.797 139.619 398.053 139.875 398.053 140.232C398.053 140.744 397.708 141 397.017 141H385.059C384.748 141 384.503 140.933 384.325 140.8C384.169 140.666 384.091 140.488 384.091 140.265C384.091 140.087 384.146 139.931 384.258 139.798C384.391 139.664 384.603 139.564 384.892 139.497L386.73 139.129C387.108 139.04 387.386 138.873 387.565 138.628C387.743 138.384 387.832 138.038 387.832 137.593V115.247C387.832 114.913 387.765 114.668 387.631 114.512C387.52 114.334 387.32 114.234 387.03 114.212L384.625 114.145C384.38 114.123 384.191 114.056 384.057 113.944C383.946 113.811 383.89 113.666 383.89 113.51C383.89 113.288 383.957 113.121 384.091 113.009C384.224 112.876 384.458 112.753 384.792 112.642L391.339 110.571C391.829 110.393 392.219 110.27 392.508 110.203C392.798 110.137 393.065 110.103 393.31 110.103C393.688 110.103 393.967 110.215 394.145 110.437C394.345 110.638 394.445 110.916 394.445 111.272ZM393.677 117.986L392.775 117.084L394.111 115.915C396.539 113.733 398.621 112.185 400.358 111.272C402.094 110.359 403.776 109.903 405.401 109.903C407.828 109.903 409.71 110.704 411.046 112.308C412.404 113.911 413.262 116.182 413.618 119.122L415.889 137.359C415.956 137.894 416.079 138.306 416.257 138.595C416.457 138.885 416.78 139.074 417.225 139.163L418.762 139.497C419.029 139.564 419.23 139.664 419.363 139.798C419.497 139.909 419.564 140.065 419.564 140.265C419.564 140.488 419.486 140.666 419.33 140.8C419.174 140.933 418.918 141 418.562 141H406.47C405.78 141 405.435 140.744 405.435 140.232C405.435 139.875 405.68 139.619 406.169 139.464L408.007 139.129C408.452 139.04 408.775 138.851 408.975 138.562C409.198 138.272 409.276 137.871 409.209 137.359L407.071 119.99C406.782 117.808 406.225 116.182 405.401 115.113C404.577 114.045 403.364 113.51 401.76 113.51C400.736 113.51 399.667 113.789 398.554 114.345C397.463 114.88 396.271 115.715 394.98 116.85L393.677 117.986ZM422.225 112.608L419.92 112.107C419.542 112.018 419.285 111.907 419.152 111.773C419.018 111.64 418.951 111.473 418.951 111.272C418.951 111.05 419.029 110.883 419.185 110.771C419.341 110.638 419.553 110.571 419.82 110.571H422.325C422.748 110.571 423.093 110.504 423.36 110.37C423.628 110.237 423.862 109.992 424.062 109.636L427.569 104.258C427.814 103.924 428.048 103.679 428.271 103.523C428.493 103.345 428.738 103.256 429.005 103.256C429.273 103.256 429.473 103.345 429.607 103.523C429.763 103.701 429.84 103.935 429.84 104.224V133.351C429.84 134.954 430.163 136.168 430.809 136.992C431.477 137.816 432.379 138.228 433.515 138.228C434.183 138.228 434.728 138.127 435.151 137.927C435.574 137.704 435.931 137.437 436.22 137.125C436.532 136.791 436.81 136.457 437.055 136.123C437.3 135.789 437.556 135.511 437.824 135.288C438.024 135.244 438.18 135.277 438.291 135.388C438.425 135.5 438.48 135.7 438.458 135.99C438.302 137.059 437.901 138.016 437.256 138.862C436.61 139.686 435.753 140.343 434.684 140.833C433.637 141.323 432.412 141.568 431.01 141.568C428.627 141.568 426.745 140.978 425.365 139.798C424.006 138.595 423.327 136.769 423.327 134.32V114.045C423.327 113.622 423.249 113.31 423.093 113.109C422.937 112.887 422.648 112.72 422.225 112.608ZM427.202 112.375L427.235 110.571H437.322C437.657 110.571 437.901 110.627 438.057 110.738C438.213 110.849 438.291 111.027 438.291 111.272C438.291 111.584 438.124 111.851 437.79 112.074C437.456 112.274 436.944 112.375 436.254 112.375H427.202ZM453.16 140.031C454.853 140.031 456.189 139.586 457.168 138.695C458.148 137.805 458.638 136.658 458.638 135.255C458.638 134.342 458.415 133.518 457.97 132.783C457.547 132.048 456.801 131.38 455.732 130.779C454.686 130.178 453.205 129.61 451.29 129.076C448.439 128.341 446.201 127.472 444.576 126.47C442.973 125.468 441.837 124.332 441.169 123.063C440.501 121.772 440.167 120.346 440.167 118.788C440.167 116.049 441.136 113.878 443.073 112.274C445.01 110.649 447.693 109.836 451.123 109.836C452.503 109.836 453.639 109.97 454.53 110.237C455.42 110.482 456.133 110.738 456.667 111.005C457.224 111.25 457.669 111.372 458.004 111.372C458.338 111.372 458.672 111.25 459.006 111.005C459.34 110.738 459.651 110.482 459.941 110.237C460.253 109.97 460.553 109.836 460.843 109.836C461.043 109.836 461.221 109.903 461.377 110.036C461.533 110.148 461.655 110.37 461.745 110.704L464.016 118.587C464.149 119.01 464.183 119.367 464.116 119.656C464.072 119.923 463.916 120.124 463.648 120.257C463.359 120.346 463.114 120.335 462.914 120.224C462.713 120.113 462.524 119.923 462.346 119.656C461.321 117.608 460.23 115.993 459.072 114.813C457.937 113.633 456.734 112.798 455.465 112.308C454.196 111.796 452.848 111.539 451.423 111.539C449.419 111.539 447.883 111.996 446.814 112.909C445.767 113.8 445.244 115.002 445.244 116.516C445.244 117.452 445.467 118.298 445.912 119.055C446.357 119.812 447.159 120.502 448.317 121.126C449.497 121.749 451.156 122.351 453.294 122.93C455.832 123.575 457.859 124.366 459.373 125.301C460.887 126.236 461.978 127.339 462.646 128.608C463.314 129.877 463.648 131.347 463.648 133.017C463.648 134.732 463.225 136.246 462.379 137.56C461.533 138.873 460.342 139.898 458.805 140.633C457.291 141.367 455.521 141.735 453.494 141.735C452.203 141.735 451.123 141.568 450.254 141.234C449.386 140.922 448.673 140.61 448.117 140.299C447.582 139.987 447.126 139.831 446.747 139.831C446.435 139.831 446.124 139.987 445.812 140.299C445.522 140.588 445.233 140.889 444.943 141.2C444.654 141.512 444.364 141.668 444.075 141.668C443.897 141.668 443.73 141.59 443.574 141.434C443.418 141.301 443.307 141.067 443.24 140.733L441.737 133.518C441.625 132.984 441.592 132.583 441.637 132.315C441.703 132.048 441.859 131.859 442.104 131.748C442.371 131.636 442.605 131.659 442.806 131.814C443.006 131.948 443.218 132.193 443.44 132.549C444.843 135.244 446.38 137.17 448.05 138.328C449.742 139.464 451.446 140.031 453.16 140.031Z" fill="#ED1164"/>
<path d="M331.564 85.5489L335.548 86.4368L336.436 82.452L332.452 81.5641L331.564 85.5489ZM602.517 179.84L604.84 176.483L601.483 174.16L599.16 177.518L602.517 179.84ZM334 84.0004L334.268 84.4224C371.724 60.617 430.008 36.7312 483.173 42.3227C509.738 45.1166 535.018 55.2687 555.802 76.4661C576.592 97.6683 592.921 129.958 601.508 177.09L602 177L602.492 176.911C593.879 129.643 577.483 97.1492 556.516 75.766C535.545 54.378 510.037 44.1426 483.277 41.3282C429.792 35.7029 371.276 59.7172 333.732 83.5784L334 84.0004Z" fill="white"/>
<path d="M217.436 106.452L213.452 105.564L212.564 109.548L216.548 110.436L217.436 106.452ZM215 108L214.732 107.578C177.276 131.384 118.992 155.269 65.8273 149.678C39.2621 146.884 13.9823 136.732 -6.80237 115.534C-27.5917 94.3322 -43.9205 62.0423 -52.5081 14.9104L-53 15.0001L-53.4919 15.0897C-44.8795 62.3579 -28.4833 94.8513 -7.51639 116.234C13.4552 137.622 38.963 147.858 65.7227 150.672C119.208 156.298 177.724 132.283 215.268 108.422L215 108Z" fill="white"/>
</g>
<defs>
<clipPath id="clip0_3254_156798">
<rect width="595" height="842" fill="white"/>
</clipPath>
</defs>
</svg>
