<svg width="595" height="842" viewBox="0 0 595 842" fill="none" xmlns="http://www.w3.org/2000/svg">
<path d="M257.581 -109.08C283.9 -114.674 311.1 -114.674 337.419 -109.08C366.208 -102.961 393.847 -87.3516 458.9 -49.793L604.168 34.0771C669.221 71.6356 696.557 87.7673 716.251 109.64C734.255 129.635 747.855 153.191 756.17 178.781C765.265 206.773 765.567 238.513 765.567 313.63V481.37C765.567 556.487 765.265 588.227 756.17 616.219C747.855 641.809 734.255 665.365 716.251 685.36C696.557 707.233 669.221 723.364 604.168 760.923L458.9 844.794C393.847 882.353 366.208 897.961 337.419 904.08C311.1 909.674 283.9 909.674 257.581 904.08C228.792 897.961 201.153 882.352 136.1 844.793L-9.16797 760.923C-74.2211 723.364 -101.557 707.233 -121.251 685.36C-139.255 665.365 -152.855 641.809 -161.17 616.219C-170.265 588.227 -170.567 556.487 -170.567 481.37V313.63C-170.567 238.513 -170.265 206.773 -161.17 178.781C-152.855 153.191 -139.255 129.635 -121.251 109.64C-101.557 87.7673 -74.2211 71.6356 -9.16797 34.0771L136.1 -49.7939C201.153 -87.3526 228.792 -102.961 257.581 -109.08Z" stroke="url(#paint0_linear_3067_159434)" stroke-width="52"/>
<path d="M288.768 120.438C294.525 119.214 300.475 119.214 306.232 120.438C311.783 121.617 317.564 124.606 338.9 136.925L502.465 231.358C523.802 243.677 529.28 247.189 533.077 251.406C537.016 255.78 539.991 260.933 541.81 266.531C543.563 271.928 543.865 278.428 543.865 303.065V491.935C543.865 516.572 543.563 523.072 541.81 528.469C539.991 534.067 537.016 539.22 533.077 543.594C529.28 547.811 523.802 551.323 502.465 563.642L338.9 658.075C317.564 670.394 311.783 673.383 306.232 674.562C300.475 675.786 294.525 675.786 288.768 674.562C283.217 673.383 277.436 670.394 256.1 658.075L92.5352 563.642C71.1981 551.323 65.7198 547.811 61.9229 543.594C57.9845 539.22 55.0093 534.067 53.1904 528.469C51.437 523.072 51.1348 516.572 51.1348 491.935V303.065C51.1348 278.428 51.437 271.928 53.1904 266.531C55.0093 260.933 57.9845 255.78 61.9229 251.406C65.7198 247.189 71.1981 243.677 92.5352 231.358L256.1 136.925C277.436 124.606 283.217 121.617 288.768 120.438Z" stroke="url(#paint1_linear_3067_159434)" stroke-width="52"/>
<path d="M267.977 11.0928C287.441 6.95539 307.559 6.95539 327.023 11.0928C348.066 15.5656 368.419 26.9669 418.9 56.1123L532.45 121.671C582.932 150.816 602.982 162.741 617.377 178.729C630.692 193.517 640.751 210.939 646.9 229.864C653.548 250.324 653.851 273.651 653.851 331.941V463.059C653.851 521.349 653.548 544.676 646.9 565.136C640.751 584.061 630.692 601.483 617.377 616.271C602.982 632.259 582.932 644.184 532.45 673.329L418.9 738.888C368.419 768.033 348.066 779.434 327.023 783.907C307.559 788.045 287.441 788.045 267.977 783.907C246.934 779.434 226.581 768.033 176.1 738.888L62.5498 673.329C12.0685 644.184 -7.98197 632.259 -22.377 616.271C-35.6924 601.483 -45.7511 584.061 -51.9004 565.136C-58.5483 544.676 -58.8506 521.349 -58.8506 463.059V331.941C-58.8506 273.651 -58.5483 250.324 -51.9004 229.864C-45.7511 210.939 -35.6924 193.517 -22.377 178.729C-7.98197 162.741 12.0685 150.816 62.5498 121.671L176.1 56.1123C226.581 26.9669 246.934 15.5656 267.977 11.0928Z" stroke="url(#paint2_linear_3067_159434)" stroke-width="52"/>
<defs>
<linearGradient id="paint0_linear_3067_159434" x1="298.182" y1="-173" x2="298.182" y2="968" gradientUnits="userSpaceOnUse">
<stop stop-color="#E8E8E8" stop-opacity="0.4"/>
<stop offset="1" stop-color="#E8E8E8" stop-opacity="0.1"/>
</linearGradient>
<linearGradient id="paint1_linear_3067_159434" x1="298.029" y1="88.8143" x2="298.029" y2="712" gradientUnits="userSpaceOnUse">
<stop stop-color="#E8E8E8" stop-opacity="0.4"/>
<stop offset="1" stop-color="#E8E8E8" stop-opacity="0.1"/>
</linearGradient>
<linearGradient id="paint2_linear_3067_159434" x1="298.027" y1="-44" x2="298.027" y2="839" gradientUnits="userSpaceOnUse">
<stop stop-color="#E8E8E8" stop-opacity="0.4"/>
<stop offset="1" stop-color="#E8E8E8" stop-opacity="0.1"/>
</linearGradient>
</defs>
</svg>
